<!DOCTYPE svg PUBLIC "-//W3C//DTD SVG 1.1//EN" "http://www.w3.org/Graphics/SVG/1.1/DTD/svg11.dtd">
<!-- Uploaded to: SVG Repo, www.svgrepo.com, Transformed by: SVG Repo Mixer Tools -->
<svg fill="#000000" width="800px" height="800px" viewBox="0 0 24 24" id="bill-dollar-left" data-name="Line Color" xmlns="http://www.w3.org/2000/svg" class="icon line-color">
<g id="SVGRepo_bgCarrier" stroke-width="0"/>
<g id="SVGRepo_tracerCarrier" stroke-linecap="round" stroke-linejoin="round"/>
<g id="SVGRepo_iconCarrier">
<path id="secondary" d="M5,13H7.5A1.5,1.5,0,0,0,9,11.5H9A1.5,1.5,0,0,0,7.5,10h-1A1.5,1.5,0,0,1,5,8.5H5A1.5,1.5,0,0,1,6.5,7H9" style="fill: none; stroke: #605cdc; stroke-linecap: round; stroke-linejoin: round; stroke-width:1.512;"/>
<path id="secondary-2" data-name="secondary" d="M7,7V6m0,8V13m5,2h3m-2-4h2" style="fill: none; stroke: #605cdc; stroke-linecap: round; stroke-linejoin: round; stroke-width:1.512;"/>
<path id="primary" d="M5,18v3l2.33-1,2.33,1L12,20l2.34,1,2.33-1L19,21V4a1,1,0,0,0-1-1H11" style="fill: none; stroke: #605cdc; stroke-linecap: round; stroke-linejoin: round; stroke-width:1.512;"/>
</g>
</svg>